<svg xmlns="http://www.w3.org/2000/svg" viewBox="0 0 586.05 428.96"><defs><style>.cls-1{fill:#f9b32a;}.cls-2{fill:#f59818;}.cls-3{fill:#e1e2e2;}.cls-4{fill:#f2820d;}.cls-5{fill:#21b1e2;}.cls-6{fill:#1295d5;}.cls-7{fill:#1395d5;}.cls-8{fill:#ef37d5;}.cls-9{font-size:70px;fill:#fff;font-family:ProductSans-Bold, Product Sans;font-weight:700;}.cls-10{letter-spacing:0.02em;}.cls-11{letter-spacing:0.01em;}.cls-12{letter-spacing:-0.03em;}.cls-13{letter-spacing:-0.03em;}.cls-14{letter-spacing:-0.06em;}.cls-15{letter-spacing:-0.06em;}.cls-16{letter-spacing:0.01em;}</style></defs><g id="Layer_2" data-name="Layer 2"><g id="Layer_1-2" data-name="Layer 1"><polygon class="cls-1" points="83.22 118.46 85.93 171.9 481.79 184.93 487.6 100.59 83.22 118.46"/><polygon class="cls-2" points="85.62 162.42 85.93 171.91 482.21 184.95 487.6 100.61 450.14 102.57 442.16 151.97 85.62 162.42"/><path class="cls-3" d="M270.05,106.87c1.68-1.84,0-3.5-.48-5.05A103.48,103.48,0,0,1,265,68.72c6.52,12.38,11.81,25.16,13.32,39.23.56,2.07.18,3.77-1.83,4.86C272.33,113,272,109,270.05,106.87Z"/><polygon class="cls-4" points="103.83 172.5 106.19 184.82 464.99 195.25 466.88 184.45 103.83 172.5"/><polygon class="cls-2" points="106.19 184.82 108 192.44 411.83 231.33 399.79 280.16 451.21 279.77 464.99 195.25 106.19 184.82"/><polygon class="cls-1" points="108 192.44 122.62 281.93 399.79 280.16 411.83 231.33 108 192.44"/><polygon class="cls-5" points="236.17 111.7 316.17 108.17 316.17 179.49 236.17 176.84 236.17 111.7"/><polygon class="cls-6" points="236.17 176.84 236.17 188.6 316.17 190.93 316.17 179.49 236.17 176.84"/><polygon class="cls-5" points="236.17 188.6 236.17 281.21 316.17 280.16 316.17 190.93 236.17 188.6"/><path class="cls-7" d="M184.46,114.16a108.35,108.35,0,0,1-23-15.42A107.77,107.77,0,0,1,148,84.51a139.51,139.51,0,0,1,65.7,6.23l22.5,21Z"/><path class="cls-7" d="M225.34,63.09c-1.85-8.93-3.47-18.65-4.67-29.09-.86-7.45-1.42-14.58-1.75-21.33,4.78,3.07,9.85,6.62,15.05,10.72a189.38,189.38,0,0,1,18.8,17,84.28,84.28,0,0,0-2.11,9.56,86.74,86.74,0,0,0,1.09,32.66Z"/><path class="cls-7" d="M295.32,69.51a87.35,87.35,0,0,1,50.44-34.16l31.8,31.56A128.16,128.16,0,0,0,319,81.1,125.35,125.35,0,0,0,292.3,99.79Q293.82,84.66,295.32,69.51Z"/><path class="cls-5" d="M148,84.51a140.35,140.35,0,0,1,32.48-.89c34,3,59,17.92,72.19,27.36l25.88-1.15c-9.93-13.46-31.25-38.29-67-53.51A158.64,158.64,0,0,0,164.93,44.5a64.72,64.72,0,0,0-17,40Z"/><path class="cls-5" d="M218.92,12.67a139.27,139.27,0,0,1,12.5,10.23C261.61,50.65,273.5,86,278.58,109.83l13.33-.59C293.42,103,307.84,40.4,272.58,10A59.84,59.84,0,0,0,256.16,0a76.3,76.3,0,0,0-37.24,12.67Z"/><path class="cls-5" d="M345.8,35.2a184,184,0,0,1-16.29,37.87,184.07,184.07,0,0,1-26.62,35.71L343.64,107a54.36,54.36,0,0,0,34-40.2Z"/><path class="cls-8" d="M571.05,429H15A15,15,0,0,1,0,414V296.86a15,15,0,0,1,14.93-15l556-2.69a15,15,0,0,1,15.08,15V414A15,15,0,0,1,571.05,429Z"/><text class="cls-9" transform="translate(42.28 382.2) rotate(-1.15)"><tspan class="cls-10">G</tspan><tspan x="57.75" y="0">I</tspan><tspan class="cls-11" x="77.28" y="0">VE</tspan><tspan class="cls-12" x="167.44" y="0">A</tspan><tspan class="cls-13" x="215.11" y="0">W</tspan><tspan class="cls-14" x="279.79" y="0">A</tspan><tspan class="cls-15" x="325.71" y="0">Y</tspan><tspan class="cls-11" x="365.75" y="0">.</tspan><tspan class="cls-16" x="385.63" y="0">N</tspan><tspan class="cls-11" x="436.59" y="0">G</tspan></text></g></g></svg>